<svg version="1.1" xmlns="http://www.w3.org/2000/svg" viewBox="0 0 977.8825451760165 545.1926994043374" width="977.8825451760165" height="545.1926994043374" filter="invert(93%) hue-rotate(180deg)">
  <!-- svg-source:excalidraw -->
  
  <defs>
    <style class="style-fonts">
      @font-face {
        font-family: "Virgil";
        src: url("https://excalidraw.com/Virgil.woff2");
      }
      @font-face {
        font-family: "Cascadia";
        src: url("https://excalidraw.com/Cascadia.woff2");
      }
      @font-face {
        font-family: "Assistant";
        src: url("https://excalidraw.com/Assistant-Regular.woff2");
      }
    </style>
    
  </defs>
  <rect x="0" y="0" width="977.8825451760165" height="545.1926994043374" fill="#ffffff"></rect><g stroke-linecap="round" transform="translate(10 259.67165952147343) rotate(0 130.72279683340548 131.53473967088007)"><path d="M187.03 11.78 C200.12 15.61, 211.91 26.57, 221.82 36.57 C231.74 46.58, 240.07 59.15, 246.5 71.82 C252.93 84.49, 258.45 98.41, 260.4 112.59 C262.36 126.77, 260.92 142.73, 258.21 156.9 C255.49 171.08, 250.99 185.22, 244.11 197.62 C237.24 210.03, 227.62 222.24, 216.96 231.35 C206.29 240.47, 193.23 247.02, 180.12 252.32 C167.02 257.63, 152.47 262.13, 138.32 263.2 C124.17 264.27, 108.93 262.55, 95.23 258.75 C81.53 254.94, 67.76 248.59, 56.14 240.37 C44.51 232.14, 33.92 220.91, 25.49 209.42 C17.06 197.93, 9.78 184.81, 5.56 171.44 C1.34 158.06, -0.17 143.32, 0.15 129.17 C0.47 115.02, 2.48 100.15, 7.49 86.54 C12.5 72.94, 21.04 58.61, 30.22 47.55 C39.41 36.48, 50.84 27.54, 62.62 20.16 C74.41 12.79, 87.23 6.52, 100.92 3.32 C114.62 0.11, 128.08 -2.13, 144.8 0.94 C161.53 4.01, 189.76 16.34, 201.28 21.75 C212.79 27.16, 215.01 31.83, 213.88 33.4 M121.53 -1.07 C134.86 -4.21, 151.64 -0.4, 165.43 3.58 C179.22 7.55, 192.51 14.66, 204.26 22.75 C216.01 30.85, 227.53 40.53, 235.94 52.14 C244.36 63.76, 250.53 78.66, 254.74 92.44 C258.96 106.22, 261.59 121.05, 261.24 134.81 C260.89 148.58, 257.44 161.82, 252.67 175.04 C247.9 188.25, 241.23 202.87, 232.62 214.09 C224.02 225.3, 213.04 234.5, 201.04 242.33 C189.03 250.16, 174.36 257.53, 160.58 261.06 C146.81 264.59, 132.29 265.33, 118.38 263.52 C104.47 261.71, 90.24 256.2, 77.15 250.21 C64.05 244.21, 50.06 237.1, 39.8 227.55 C29.54 218.01, 22.1 205.7, 15.59 192.95 C9.08 180.2, 2.88 165.29, 0.77 151.08 C-1.35 136.86, 0.39 121.57, 2.91 107.65 C5.43 93.74, 8.96 79.76, 15.88 67.59 C22.8 55.42, 33.83 44.31, 44.42 34.62 C55.02 24.93, 66.36 14.97, 79.45 9.46 C92.55 3.96, 116.07 2.85, 123.01 1.57 C129.95 0.29, 120.93 -0.4, 121.1 1.77" stroke="#1e1e1e" stroke-width="2" fill="none"></path></g><g transform="translate(78.86555663771196 373.69729280946694) rotate(0 61.922264099121094 17.5)"><text x="61.922264099121094" y="24.528" font-family="Virgil, Segoe UI Emoji" font-size="28px" fill="#1e1e1e" text-anchor="middle" style="white-space: pre;" direction="ltr" dominant-baseline="alphabetic">Module A</text></g><g stroke-linecap="round" transform="translate(706.4369515092055 272.1232200625775) rotate(0 130.72279683340548 131.53473967087996)"><path d="M150.37 0.71 C163.97 0.39, 177.44 7.39, 189.73 14.19 C202.03 20.99, 214.08 31.25, 224.13 41.52 C234.19 51.79, 243.8 63.04, 250.06 75.81 C256.32 88.58, 260.5 103.89, 261.7 118.15 C262.89 132.41, 260.49 147.57, 257.24 161.39 C253.99 175.21, 249.5 189.08, 242.19 201.06 C234.88 213.04, 224.43 224.18, 213.36 233.26 C202.3 242.35, 189.28 250.66, 175.82 255.59 C162.36 260.52, 146.68 262.82, 132.62 262.85 C118.56 262.88, 104.85 260.17, 91.46 255.79 C78.07 251.4, 63.88 245, 52.29 236.53 C40.7 228.07, 29.69 216.75, 21.9 204.97 C14.12 193.2, 9.26 179.55, 5.57 165.89 C1.89 152.23, -0.97 137.01, -0.19 123.03 C0.58 109.05, 4.75 95.15, 10.21 82.03 C15.67 68.91, 23.1 54.99, 32.56 44.32 C42.02 33.66, 54.52 25.1, 66.98 18.05 C79.43 11.01, 91.22 4.43, 107.31 2.04 C123.4 -0.35, 152.18 2.13, 163.5 3.71 C174.82 5.3, 175.64 9.28, 175.23 11.54 M183.36 10.52 C196.59 13.96, 208.77 25.31, 219.39 35.08 C230.01 44.86, 240.18 56.45, 247.08 69.15 C253.98 81.86, 258.68 97.07, 260.79 111.33 C262.9 125.59, 262.24 141.02, 259.76 154.7 C257.28 168.39, 252.54 181.24, 245.9 193.45 C239.26 205.67, 230.61 218.48, 219.91 228.02 C209.21 237.56, 194.81 244.92, 181.69 250.71 C168.57 256.49, 155.21 261.25, 141.18 262.74 C127.15 264.24, 111.27 263.11, 97.52 259.68 C83.76 256.25, 70.49 249.94, 58.66 242.17 C46.82 234.4, 35.02 224.61, 26.5 213.06 C17.97 201.5, 11.76 186.44, 7.51 172.83 C3.26 159.22, 1.09 145.49, 0.98 131.4 C0.88 117.3, 2.65 101.8, 6.89 88.28 C11.13 74.76, 17.87 61.56, 26.42 50.27 C34.96 38.99, 46.06 28.21, 58.15 20.57 C70.23 12.93, 85.23 7.61, 98.93 4.45 C112.63 1.28, 126.03 0.32, 140.34 1.58 C154.65 2.83, 178 10.02, 184.77 11.96 C191.54 13.9, 181.96 11.13, 180.96 13.23" stroke="#1e1e1e" stroke-width="2" fill="none"></path></g><g transform="translate(774.308504851019 386.1488533505708) rotate(0 62.91626739501953 17.5)"><text x="62.91626739501953" y="24.528" font-family="Virgil, Segoe UI Emoji" font-size="28px" fill="#1e1e1e" text-anchor="middle" style="white-space: pre;" direction="ltr" dominant-baseline="alphabetic">Module B</text></g><g stroke-linecap="round" transform="translate(348.7028703435599 9.999999999999773) rotate(0 130.72279683340548 131.53473967087996)"><path d="M73.1 14.18 C84.05 6.43, 100.28 3.54, 114.23 1.73 C128.17 -0.07, 142.97 0.41, 156.79 3.37 C170.61 6.33, 184.86 12.28, 197.12 19.49 C209.38 26.7, 221.2 35.87, 230.33 46.61 C239.45 57.35, 246.58 70.52, 251.86 83.93 C257.14 97.35, 261.45 112.91, 262.01 127.08 C262.57 141.25, 259.51 155.53, 255.23 168.96 C250.95 182.38, 244.29 195.91, 236.35 207.63 C228.42 219.34, 218.92 230.87, 207.62 239.25 C196.31 247.64, 182.37 254.06, 168.54 257.93 C154.71 261.81, 138.88 263.14, 124.65 262.5 C110.41 261.86, 96.33 259.06, 83.13 254.1 C69.92 249.13, 56.13 241.99, 45.4 232.71 C34.67 223.43, 25.82 210.94, 18.75 198.42 C11.67 185.89, 6.06 171.34, 2.94 157.57 C-0.18 143.8, -1.69 129.74, 0.03 115.79 C1.74 101.85, 6.73 86.74, 13.24 73.92 C19.75 61.1, 27.82 49.54, 39.07 38.88 C50.32 28.22, 71.98 15.06, 80.74 9.95 C89.51 4.85, 90.65 6.11, 91.67 8.24 M111.07 2.57 C124.48 -1.04, 141.6 0.82, 155.55 3.33 C169.5 5.85, 182.44 10.88, 194.77 17.67 C207.11 24.45, 219.95 33.55, 229.55 44.04 C239.15 54.54, 246.99 67.26, 252.4 80.65 C257.8 94.03, 261.05 110.25, 262 124.36 C262.96 138.47, 262.16 152.04, 258.14 165.32 C254.12 178.6, 246.21 192.09, 237.86 204.06 C229.52 216.03, 218.99 228.44, 208.09 237.15 C197.2 245.86, 185.71 251.86, 172.49 256.32 C159.26 260.78, 143.28 264.34, 128.73 263.93 C114.17 263.52, 98.46 259.07, 85.16 253.88 C71.86 248.7, 59.52 241.68, 48.92 232.82 C38.31 223.95, 29.33 212.38, 21.53 200.67 C13.72 188.96, 5.5 176.32, 2.08 162.55 C-1.34 148.77, -0.39 132.49, 1.01 118.02 C2.41 103.55, 4.57 88.81, 10.49 75.75 C16.41 62.69, 26.66 49.86, 36.53 39.67 C46.41 29.47, 57.21 20.96, 69.72 14.58 C82.24 8.21, 104.55 3.04, 111.6 1.43 C118.66 -0.17, 111.89 2.8, 112.05 4.96" stroke="#1e1e1e" stroke-width="2" fill="none"></path></g><g transform="translate(417.73642624884997 124.02563328799329) rotate(0 61.75426483154297 17.5)"><text x="61.75426483154297" y="24.528" font-family="Virgil, Segoe UI Emoji" font-size="28px" fill="#1e1e1e" text-anchor="middle" style="white-space: pre;" direction="ltr" dominant-baseline="alphabetic">Module C</text></g><g stroke-linecap="round"><g transform="translate(685.7547830089497 351.0208630952202) rotate(0 -51.46039646234101 -46.04961671037222)"><path d="M0.78 -0.61 C-16.35 -15.87, -84.65 -75.89, -101.89 -91.24 M-0.28 1.69 C-17.55 -13.94, -85.13 -77.34, -102.3 -92.91" stroke="#1e1e1e" stroke-width="2" fill="none"></path></g><g transform="translate(685.7547830089497 351.0208630952202) rotate(0 -51.46039646234101 -46.04961671037222)"><path d="M-79.25 -83.25 C-88.87 -84.98, -95.01 -89.89, -102.3 -92.91 M-79.25 -83.25 C-84.95 -85.55, -91.11 -88.02, -102.3 -92.91" stroke="#1e1e1e" stroke-width="2" fill="none"></path></g><g transform="translate(685.7547830089497 351.0208630952202) rotate(0 -51.46039646234101 -46.04961671037222)"><path d="M-90.85 -70.69 C-96.19 -77.17, -98.01 -86.75, -102.3 -92.91 M-90.85 -70.69 C-93.59 -76.02, -96.87 -81.61, -102.3 -92.91" stroke="#1e1e1e" stroke-width="2" fill="none"></path></g></g><mask></mask><g stroke-linecap="round"><g transform="translate(285.94272855913346 437.19834775815843) rotate(0 208.44110424341193 -0.7004597504760568)"><path d="M-0.15 1.02 C69.36 0.45, 348.18 -1.87, 417.79 -2.36 M-1.69 0.51 C67.68 0.57, 347.52 -1.09, 417.32 -1.32" stroke="#1e1e1e" stroke-width="2" fill="none"></path></g><g transform="translate(285.94272855913346 437.19834775815843) rotate(0 208.44110424341193 -0.7004597504760568)"><path d="M393.87 7.34 C403.97 5.76, 409.17 2.23, 417.32 -1.32 M393.87 7.34 C399.32 4.33, 406.51 3.61, 417.32 -1.32" stroke="#1e1e1e" stroke-width="2" fill="none"></path></g><g transform="translate(285.94272855913346 437.19834775815843) rotate(0 208.44110424341193 -0.7004597504760568)"><path d="M393.79 -9.76 C404.07 -5.16, 409.3 -2.5, 417.32 -1.32 M393.79 -9.76 C399.16 -8.37, 406.37 -4.69, 417.32 -1.32" stroke="#1e1e1e" stroke-width="2" fill="none"></path></g></g><mask></mask><g stroke-linecap="round"><g transform="translate(381.9747495700449 243.3846603320403) rotate(0 -53.321441769018634 41.06363906349725)"><path d="M0.05 -0.88 C-17.98 12.8, -89.86 68.22, -107.6 81.97 M-1.39 1.27 C-19.09 15.16, -87.78 69.86, -105.38 83.42" stroke="#1e1e1e" stroke-width="2" fill="none"></path></g><g transform="translate(381.9747495700449 243.3846603320403) rotate(0 -53.321441769018634 41.06363906349725)"><path d="M-92.18 62.19 C-98.23 67.94, -101.58 77.26, -105.38 83.42 M-92.18 62.19 C-96.4 67.5, -98.25 73.88, -105.38 83.42" stroke="#1e1e1e" stroke-width="2" fill="none"></path></g><g transform="translate(381.9747495700449 243.3846603320403) rotate(0 -53.321441769018634 41.06363906349725)"><path d="M-81.63 75.64 C-91.3 76.75, -98.3 81.43, -105.38 83.42 M-81.63 75.64 C-88.44 77.45, -92.99 80.38, -105.38 83.42" stroke="#1e1e1e" stroke-width="2" fill="none"></path></g></g><mask></mask></svg>