<svg version="1.1" xmlns="http://www.w3.org/2000/svg" viewBox="0 0 764.7905359355248 287.1343358245813" width="764.7905359355248" height="287.1343358245813" filter="invert(93%) hue-rotate(180deg)">
  <!-- svg-source:excalidraw -->
  
  <defs>
    <style class="style-fonts">
      @font-face {
        font-family: "Virgil";
        src: url("https://excalidraw.com/Virgil.woff2");
      }
      @font-face {
        font-family: "Cascadia";
        src: url("https://excalidraw.com/Cascadia.woff2");
      }
      @font-face {
        font-family: "Assistant";
        src: url("https://excalidraw.com/Assistant-Regular.woff2");
      }
    </style>
    
  </defs>
  <rect x="0" y="0" width="764.7905359355248" height="287.1343358245813" fill="#ffffff"></rect><g stroke-linecap="round" transform="translate(10 9.999999999999773) rotate(0 130.72279683340548 131.53473967087996)"><path d="M82.9 8.51 C94.83 1.64, 111.72 1.08, 126.13 0.45 C140.53 -0.18, 155.87 0.84, 169.34 4.73 C182.82 8.62, 195.71 15.48, 206.96 23.79 C218.21 32.11, 228.7 43.02, 236.86 54.63 C245.02 66.25, 251.98 79.66, 255.93 93.46 C259.87 107.26, 261.22 123.09, 260.53 137.45 C259.85 151.8, 256.93 166.4, 251.82 179.6 C246.71 192.8, 239.06 205.92, 229.87 216.67 C220.69 227.41, 208.67 236.89, 196.7 244.05 C184.73 251.21, 171.81 256.55, 158.07 259.63 C144.32 262.7, 128.31 264.35, 114.2 262.51 C100.1 260.68, 86.01 254.86, 73.44 248.63 C60.87 242.4, 48.76 234.96, 38.77 225.14 C28.78 215.31, 19.64 202.79, 13.48 189.69 C7.32 176.59, 3.6 160.9, 1.83 146.56 C0.06 132.21, -0.06 117.32, 2.85 103.6 C5.76 89.87, 12.14 76.44, 19.29 64.19 C26.44 51.95, 32.5 40.04, 45.75 30.15 C58.99 20.25, 87.49 9.24, 98.78 4.83 C110.06 0.42, 113.1 1.53, 113.44 3.69 M148.02 -0.39 C161.68 -0.98, 175.93 6.04, 188.63 12.39 C201.34 18.74, 214.36 27.73, 224.27 37.69 C234.17 47.65, 241.96 59.06, 248.05 72.16 C254.14 85.26, 259.07 101.91, 260.79 116.3 C262.51 130.68, 261.08 144.59, 258.36 158.46 C255.64 172.32, 251.74 187.42, 244.48 199.51 C237.21 211.59, 225.81 221.95, 214.77 230.97 C203.73 239.99, 191.53 248.53, 178.23 253.62 C164.93 258.72, 148.94 260.9, 134.96 261.56 C120.99 262.21, 107.58 261.17, 94.39 257.55 C81.21 253.93, 67.64 248.07, 55.86 239.83 C44.09 231.6, 32.05 220.09, 23.76 208.15 C15.47 196.21, 10.09 181.99, 6.13 168.19 C2.17 154.4, -0.34 139.58, -0.01 125.39 C0.33 111.19, 3.02 95.94, 8.16 83.05 C13.29 70.16, 21.39 58.57, 30.82 48.06 C40.25 37.55, 52.53 27.52, 64.75 19.97 C76.98 12.42, 90.59 6.06, 104.17 2.74 C117.76 -0.59, 139.02 0.05, 146.25 0.01 C153.48 -0.04, 147.82 0.23, 147.57 2.45" stroke="#1e1e1e" stroke-width="2" fill="none"></path></g><g transform="translate(78.86555663771196 124.02563328799329) rotate(0 61.922264099121094 17.5)"><text x="61.922264099121094" y="24.528" font-family="Virgil, Segoe UI Emoji" font-size="28px" fill="#1e1e1e" text-anchor="middle" style="white-space: pre;" direction="ltr" dominant-baseline="alphabetic">Module A</text></g><g stroke-linecap="round" transform="translate(493.3449422687138 14.064856482821597) rotate(0 130.72279683340548 131.53473967087996)"><path d="M130.35 0.52 C143.75 -1.31, 160.11 3.21, 173.64 7.94 C187.17 12.67, 200.41 20.4, 211.52 28.92 C222.62 37.45, 232.62 47.22, 240.3 59.08 C247.98 70.94, 254.2 86.03, 257.59 100.09 C260.99 114.15, 261.97 129.23, 260.68 143.45 C259.38 157.66, 255.53 172.49, 249.83 185.37 C244.12 198.24, 236.07 210.28, 226.43 220.68 C216.79 231.07, 204.41 240.81, 191.98 247.74 C179.55 254.67, 165.84 259.87, 151.85 262.24 C137.86 264.62, 121.89 264.62, 108.03 261.97 C94.17 259.31, 80.9 253.19, 68.7 246.32 C56.51 239.44, 44.67 231.13, 34.88 220.74 C25.08 210.34, 15.69 197.06, 9.96 183.95 C4.22 170.84, 1.49 156.14, 0.47 142.07 C-0.54 128, 0.37 113.37, 3.88 99.54 C7.4 85.71, 13.72 71.24, 21.55 59.08 C29.39 46.92, 39.71 35.25, 50.89 26.57 C62.06 17.89, 74.6 11.51, 88.63 7.01 C102.65 2.51, 126.86 0.23, 135.02 -0.42 C143.18 -1.07, 137.8 0.82, 137.6 3.1 M131.54 1.38 C144.86 -0.34, 160.84 4.16, 174.09 8.44 C187.34 12.71, 199.88 18.36, 211.03 27.03 C222.18 35.71, 233.08 48.37, 240.99 60.5 C248.91 72.63, 255.19 85.71, 258.52 99.8 C261.84 113.89, 262.24 130.57, 260.94 145.03 C259.65 159.49, 256.37 173.96, 250.74 186.57 C245.11 199.17, 237.09 210.32, 227.17 220.67 C217.25 231.01, 203.76 241.68, 191.23 248.63 C178.7 255.58, 165.98 260.25, 152.01 262.36 C138.04 264.47, 121.37 263.9, 107.4 261.3 C93.43 258.69, 80.64 253.54, 68.2 246.74 C55.76 239.94, 42.28 230.81, 32.75 220.47 C23.22 210.14, 16.59 198.05, 11.04 184.73 C5.49 171.41, 0.45 154.75, -0.56 140.53 C-1.56 126.31, 1.51 113.24, 5.04 99.4 C8.56 85.55, 12.72 69.34, 20.59 57.48 C28.46 45.61, 40.88 36.54, 52.26 28.2 C63.63 19.86, 75.41 12.09, 88.82 7.45 C102.24 2.8, 125.34 1.12, 132.73 0.33 C140.13 -0.47, 133.45 0.52, 133.19 2.68" stroke="#1e1e1e" stroke-width="2" fill="none"></path></g><g transform="translate(561.2164956105273 128.0904897708151) rotate(0 62.91626739501953 17.5)"><text x="62.91626739501953" y="24.528" font-family="Virgil, Segoe UI Emoji" font-size="28px" fill="#1e1e1e" text-anchor="middle" style="white-space: pre;" direction="ltr" dominant-baseline="alphabetic">Module B</text></g><g stroke-linecap="round"><g transform="translate(264.49360143262084 73.9578148605301) rotate(0 117.06201583773066 -3.0644506763803747)"><path d="M-0.14 -0.09 C38.89 -1.11, 194.19 -5.01, 233.21 -6.09 M-1.68 -1.19 C37.82 -2, 196.3 -3.82, 235.44 -4.54" stroke="#1e1e1e" stroke-width="2" fill="none"></path></g><g transform="translate(264.49360143262084 73.9578148605301) rotate(0 117.06201583773066 -3.0644506763803747)"><path d="M212.07 4.35 C216.96 0.93, 222.21 0.3, 235.44 -4.54 M212.07 4.35 C217.62 2.45, 225.03 0.37, 235.44 -4.54" stroke="#1e1e1e" stroke-width="2" fill="none"></path></g><g transform="translate(264.49360143262084 73.9578148605301) rotate(0 117.06201583773066 -3.0644506763803747)"><path d="M211.82 -12.75 C216.77 -12.47, 222.08 -9.42, 235.44 -4.54 M211.82 -12.75 C217.53 -10.14, 225 -7.71, 235.44 -4.54" stroke="#1e1e1e" stroke-width="2" fill="none"></path></g></g><mask></mask><g stroke-linecap="round"><g transform="translate(491.26295148476925 197.76162218629747) rotate(0 -107.86866380858953 1.8386704058282248)"><path d="M0.28 -0.92 C-35.57 -0.5, -179.08 2.75, -215.23 3.6 M-1.03 1.21 C-36.98 2.35, -180.38 4.95, -215.91 5.1" stroke="#1e1e1e" stroke-width="2" fill="none"></path></g><g transform="translate(491.26295148476925 197.76162218629747) rotate(0 -107.86866380858953 1.8386704058282248)"><path d="M-192.53 -3.74 C-200.74 -0.29, -206.09 -0.07, -215.91 5.1 M-192.53 -3.74 C-201.25 -0.13, -207.87 2.45, -215.91 5.1" stroke="#1e1e1e" stroke-width="2" fill="none"></path></g><g transform="translate(491.26295148476925 197.76162218629747) rotate(0 -107.86866380858953 1.8386704058282248)"><path d="M-192.31 13.36 C-200.74 11.87, -206.15 7.15, -215.91 5.1 M-192.31 13.36 C-200.96 11.14, -207.65 7.9, -215.91 5.1" stroke="#1e1e1e" stroke-width="2" fill="none"></path></g></g><mask></mask></svg>