<svg version="1.1" xmlns="http://www.w3.org/2000/svg" viewBox="0 0 1637.7107863795286 731.2885398984924" width="1637.7107863795286" height="731.2885398984924" filter="invert(93%) hue-rotate(180deg)">
  <!-- svg-source:excalidraw -->
  
  <defs>
    <style class="style-fonts">
      @font-face {
        font-family: "Virgil";
        src: url("https://excalidraw.com/Virgil.woff2");
      }
      @font-face {
        font-family: "Cascadia";
        src: url("https://excalidraw.com/Cascadia.woff2");
      }
      @font-face {
        font-family: "Assistant";
        src: url("https://excalidraw.com/Assistant-Regular.woff2");
      }
    </style>
    
  </defs>
  <rect x="0" y="0" width="1637.7107863795286" height="731.2885398984924" fill="#ffffff"></rect><g stroke-linecap="round" transform="translate(10 372.73155220894864) rotate(0 99.99513243078978 94.11306581721396)"><path d="M69.71 5.1 C80.57 0.26, 95.3 -0.55, 108 0.4 C120.7 1.36, 134.52 5.15, 145.91 10.83 C157.31 16.52, 168.13 25.17, 176.38 34.49 C184.62 43.81, 191.53 55.59, 195.39 66.76 C199.25 77.93, 200.72 89.72, 199.53 101.52 C198.34 113.31, 194.04 126.79, 188.26 137.53 C182.48 148.26, 174.56 158.06, 164.84 165.93 C155.12 173.81, 142.09 181.05, 129.94 184.76 C117.79 188.47, 104.6 189.55, 91.92 188.2 C79.24 186.86, 65.26 182.46, 53.86 176.71 C42.46 170.97, 31.78 162.67, 23.52 153.73 C15.26 144.8, 8.32 134.53, 4.3 123.12 C0.28 111.71, -1.75 97.45, -0.59 85.26 C0.57 73.08, 5.13 60.47, 11.25 50 C17.38 39.53, 24.11 30.64, 36.16 22.44 C48.22 14.24, 73.63 4.06, 83.59 0.79 C93.55 -2.49, 95.56 1.03, 95.91 2.81 M122.44 2.04 C134.71 2.97, 146.98 10.52, 157.38 17.73 C167.77 24.94, 177.86 34.99, 184.8 45.31 C191.74 55.62, 197.01 68.19, 199.02 79.62 C201.03 91.06, 199.71 102.3, 196.86 113.92 C194.01 125.54, 189.39 139.49, 181.92 149.37 C174.46 159.24, 162.72 167.05, 152.09 173.18 C141.45 179.32, 130.38 183.94, 118.1 186.18 C105.83 188.42, 90.88 189.27, 78.43 186.63 C65.97 183.98, 53.83 177.44, 43.36 170.29 C32.9 163.14, 22.44 154, 15.64 143.72 C8.84 133.44, 4.69 120.15, 2.58 108.62 C0.46 97.09, 0.1 86, 2.94 74.54 C5.77 63.07, 12.24 49.57, 19.59 39.82 C26.94 30.07, 36.67 22.67, 47.02 16.02 C57.37 9.37, 69.17 2.39, 81.68 -0.1 C94.2 -2.59, 115.28 0.33, 122.13 1.1 C128.98 1.87, 123.3 2.92, 122.78 4.5" stroke="#1e1e1e" stroke-width="2" fill="none"></path></g><g transform="translate(87.44792275362443 454.2966309885553) rotate(0 22.33997344970703 12.5)"><text x="22.33997344970703" y="17.52" font-family="Virgil, Segoe UI Emoji" font-size="20px" fill="#1e1e1e" text-anchor="middle" style="white-space: pre;" direction="ltr" dominant-baseline="alphabetic">User</text></g><g stroke-linecap="round" transform="translate(1011.1277376306127 351.55611240007624) rotate(0 72.34941934698304 74.70224599241374)"><path d="M32 0 C58.95 1.06, 82.77 2.04, 112.7 0 M32 0 C49.83 0, 68.15 0.28, 112.7 0 M112.7 0 C135.74 -0.14, 142.91 9.9, 144.7 32 M112.7 0 C133.73 1.49, 143.92 10.61, 144.7 32 M144.7 32 C145.59 63.31, 145.71 96.34, 144.7 117.4 M144.7 32 C144.83 54.99, 144.81 78.54, 144.7 117.4 M144.7 117.4 C145.66 139.77, 132.89 148.23, 112.7 149.4 M144.7 117.4 C146.69 140.81, 135.88 150.43, 112.7 149.4 M112.7 149.4 C93.51 149.19, 75.71 149.94, 32 149.4 M112.7 149.4 C80.36 149.56, 49.09 150.83, 32 149.4 M32 149.4 C8.96 148.72, 1.54 137.83, 0 117.4 M32 149.4 C11.4 150.5, 1.63 137.68, 0 117.4 M0 117.4 C-1.57 91.26, 1.93 65.54, 0 32 M0 117.4 C-1.14 90.76, -0.17 65.25, 0 32 M0 32 C1.56 11.14, 9.52 -1.16, 32 0 M0 32 C-1.47 11.48, 12.5 -0.39, 32 0" stroke="#1e1e1e" stroke-width="2" fill="none"></path></g><g stroke-linecap="round" transform="translate(952.895764913133 440.3758050219924) rotate(0 72.3494193469831 74.70224599241374)"><path d="M32 0 C56.18 1.47, 76.25 -0.1, 112.7 0 M32 0 C62.39 -0.43, 93.03 -0.58, 112.7 0 M112.7 0 C133.1 -1.15, 145.15 10.97, 144.7 32 M112.7 0 C134.92 1.74, 145.03 12.72, 144.7 32 M144.7 32 C143.28 57.95, 145.29 82.27, 144.7 117.4 M144.7 32 C144.34 48.78, 144.96 66.08, 144.7 117.4 M144.7 117.4 C145.87 139.54, 132.24 150.97, 112.7 149.4 M144.7 117.4 C143.43 137.25, 132.55 149.77, 112.7 149.4 M112.7 149.4 C98.25 149.36, 81.79 148.35, 32 149.4 M112.7 149.4 C91.1 148.12, 66.81 148.44, 32 149.4 M32 149.4 C11.09 151.07, -0.99 137.75, 0 117.4 M32 149.4 C10.21 150.59, -0.3 137.34, 0 117.4 M0 117.4 C0.11 91.28, -0.42 64.53, 0 32 M0 117.4 C0.17 88.79, 1.05 59.2, 0 32 M0 32 C1.01 9.46, 12.66 0.79, 32 0 M0 32 C2.23 12.39, 12.12 -0.97, 32 0" stroke="#1e1e1e" stroke-width="2" fill="none"></path></g><g stroke-linecap="round" transform="translate(880.5468323230709 539.7832175483456) rotate(0 72.3494193469831 74.70224599241374)"><path d="M32 0 C61.72 2.08, 92.18 1.81, 112.7 0 M32 0 C58.16 -1.08, 83.92 -0.39, 112.7 0 M112.7 0 C134.33 0.77, 146.21 10.96, 144.7 32 M112.7 0 C136.09 -0.3, 144.76 12.51, 144.7 32 M144.7 32 C146.61 49.52, 146.1 72.29, 144.7 117.4 M144.7 32 C143.64 52.3, 144.62 70.53, 144.7 117.4 M144.7 117.4 C146.26 137.63, 132.74 148.12, 112.7 149.4 M144.7 117.4 C145.06 136.52, 134.81 151.2, 112.7 149.4 M112.7 149.4 C78.86 149.77, 48.02 149.05, 32 149.4 M112.7 149.4 C80.5 148.93, 50.15 148.23, 32 149.4 M32 149.4 C9.68 149, 1.03 138.48, 0 117.4 M32 149.4 C9.27 149.76, -2.16 137.4, 0 117.4 M0 117.4 C0.66 95.47, -1.61 71.01, 0 32 M0 117.4 C-0.74 95.41, -0.78 73.41, 0 32 M0 32 C0.79 12.61, 12.17 1.26, 32 0 M0 32 C-0.97 10.82, 12.2 2.1, 32 0" stroke="#1e1e1e" stroke-width="2" fill="none"></path></g><g transform="translate(975.2476180447209 499.19647115775047) rotate(0 55.043601989746094 18.970273274933334)"><text x="0" y="26.588735022146714" font-family="Virgil, Segoe UI Emoji" font-size="30.35243723989351px" fill="#1e1e1e" text-anchor="start" style="white-space: pre;" direction="ltr" dominant-baseline="alphabetic">Servers</text></g><g mask="url(#mask-G3heeZNzpOAcfOa_K6rBO)" stroke-linecap="round"><g transform="translate(221.71457576399303 443.6705274500057) rotate(0 185.18168892497252 -0.9610643640116905)"><path d="M0.34 -0.38 C62.34 -0.98, 309.62 -2.57, 371.29 -2.89 M-0.94 -1.62 C61.05 -2.17, 309.07 -1.93, 370.83 -1.87" stroke="#1e1e1e" stroke-width="2" fill="none"></path></g><g transform="translate(221.71457576399303 443.6705274500057) rotate(0 185.18168892497252 -0.9610643640116905)"><path d="M347.33 6.66 C352.27 6.11, 356.9 2.59, 370.83 -1.87 M347.33 6.66 C354.35 4.47, 360.64 2.14, 370.83 -1.87" stroke="#1e1e1e" stroke-width="2" fill="none"></path></g><g transform="translate(221.71457576399303 443.6705274500057) rotate(0 185.18168892497252 -0.9610643640116905)"><path d="M347.35 -10.44 C352.39 -6.9, 357.01 -6.33, 370.83 -1.87 M347.35 -10.44 C354.39 -8.1, 360.68 -5.89, 370.83 -1.87" stroke="#1e1e1e" stroke-width="2" fill="none"></path></g></g><mask id="mask-G3heeZNzpOAcfOa_K6rBO"><rect x="0" y="0" fill="#fff" width="692.077953613938" height="545.5926561780291"></rect><rect x="318.48637546777417" y="417.7094630859938" fill="#000" width="176.8197784423828" height="50" opacity="1"></rect></mask><g transform="translate(318.48637546777417 417.7094630859938) rotate(0 88.40482208236111 24.32584130726741)"><text x="88.4098892211914" y="17.52" font-family="Virgil, Segoe UI Emoji" font-size="20px" fill="#1e1e1e" text-anchor="middle" style="white-space: pre;" direction="ltr" dominant-baseline="alphabetic">GET</text><text x="88.4098892211914" y="42.519999999999996" font-family="Virgil, Segoe UI Emoji" font-size="20px" fill="#1e1e1e" text-anchor="middle" style="white-space: pre;" direction="ltr" dominant-baseline="alphabetic">Request short url</text></g><g mask="url(#mask-gd8p94OAIr22e8LIBdNL2)" stroke-linecap="round"><g transform="translate(946.1783637512051 705.8479936291044) rotate(0 -397.62770307772865 -65.58528626007092)"><path d="M-0.42 0.19 C-72.4 0.83, -300.4 26.11, -432.87 3.9 C-565.35 -18.31, -734.85 -109.9, -795.26 -133.08 M1.57 -0.76 C-70.52 -0.44, -301.07 24.63, -434 2.28 C-566.93 -20.08, -735.84 -112.07, -796.03 -134.89" stroke="#1e1e1e" stroke-width="2" fill="none"></path></g><g transform="translate(946.1783637512051 705.8479936291044) rotate(0 -397.62770307772865 -65.58528626007092)"><path d="M-771.09 -133.14 C-776.24 -134.18, -780.42 -134, -796.03 -134.89 M-771.09 -133.14 C-781.09 -134.17, -789.67 -135.05, -796.03 -134.89" stroke="#1e1e1e" stroke-width="2" fill="none"></path></g><g transform="translate(946.1783637512051 705.8479936291044) rotate(0 -397.62770307772865 -65.58528626007092)"><path d="M-778.05 -117.52 C-781.68 -121.95, -784.33 -125.19, -796.03 -134.89 M-778.05 -117.52 C-785.35 -124.51, -791.25 -131.41, -796.03 -134.89" stroke="#1e1e1e" stroke-width="2" fill="none"></path></g></g><mask id="mask-gd8p94OAIr22e8LIBdNL2"><rect x="0" y="0" fill="#fff" width="1841.4337699066623" height="942.8996586880223"></rect><rect x="458.36645851027606" y="696.2885398984927" fill="#000" width="110.55987548828125" height="25" opacity="1"></rect></mask><g transform="translate(458.36645851027606 696.2885398984927) rotate(0 90.58179640183181 -51.3766384430171)"><text x="55.279937744140625" y="17.52" font-family="Virgil, Segoe UI Emoji" font-size="20px" fill="#1e1e1e" text-anchor="middle" style="white-space: pre;" direction="ltr" dominant-baseline="alphabetic">Shorted url</text></g><g stroke-linecap="round" transform="translate(1270.8684408205932 139.99318540310674) rotate(0 72.93762600834077 68.23197271747995)"><path d="M32 0 C55.31 0.23, 77.15 0.1, 113.88 0 M32 0 C49.89 -0.23, 66.47 0.97, 113.88 0 M113.88 0 C136.7 0.69, 146.13 9, 145.88 32 M113.88 0 C135.64 -1.84, 145.19 12.5, 145.88 32 M145.88 32 C144.34 47.38, 146.44 62.34, 145.88 104.46 M145.88 32 C146.35 50.4, 145.89 66.52, 145.88 104.46 M145.88 104.46 C147.87 126.32, 134.84 136.04, 113.88 136.46 M145.88 104.46 C146.62 126.17, 137.4 137.2, 113.88 136.46 M113.88 136.46 C81.66 137.22, 47.04 135.26, 32 136.46 M113.88 136.46 C83.49 137.43, 51.69 136.86, 32 136.46 M32 136.46 C9.83 137.97, -1.93 126.43, 0 104.46 M32 136.46 C12.47 138.41, 0.01 126.41, 0 104.46 M0 104.46 C0.77 73.89, 2.22 47.04, 0 32 M0 104.46 C0.77 87.66, 0.25 68.73, 0 32 M0 32 C-0.63 11.17, 9.93 -0.24, 32 0 M0 32 C-2.05 11.93, 10.93 1.35, 32 0" stroke="#1e1e1e" stroke-width="2" fill="none"></path></g><g stroke-linecap="round" transform="translate(1394.9805331239656 10) rotate(0 72.93762600834089 68.23197271748006)"><path d="M32 0 C63.1 0.61, 91.36 -1.16, 113.88 0 M32 0 C56.08 -1.31, 80.89 0.03, 113.88 0 M113.88 0 C134.13 0.04, 147.37 9.2, 145.88 32 M113.88 0 C134.4 1.8, 147.69 10.66, 145.88 32 M145.88 32 C144.32 46.74, 145.26 64.28, 145.88 104.46 M145.88 32 C146.13 58.94, 146.65 87.33, 145.88 104.46 M145.88 104.46 C146.08 126.45, 135.73 136.59, 113.88 136.46 M145.88 104.46 C146.36 126.24, 133.35 134.75, 113.88 136.46 M113.88 136.46 C97.34 137.48, 79.09 138.1, 32 136.46 M113.88 136.46 C82.97 137.21, 52.96 136.46, 32 136.46 M32 136.46 C11.53 134.7, -0.64 126.23, 0 104.46 M32 136.46 C10.99 134.5, -0.55 128.06, 0 104.46 M0 104.46 C-2.39 78.34, -0.52 55.1, 0 32 M0 104.46 C0.59 87.5, 0.41 68.67, 0 32 M0 32 C1.7 8.91, 9.22 -1.15, 32 0 M0 32 C-0.9 12.53, 9.77 -1.66, 32 0" stroke="#1e1e1e" stroke-width="2" fill="none"></path></g><g stroke-linecap="round" transform="translate(1308.514640661321 96.46686597648704) rotate(0 72.93762600834089 68.23197271748006)"><path d="M32 0 C51.95 -1.27, 67.35 -0.74, 113.88 0 M32 0 C63.02 -0.75, 92.2 0.76, 113.88 0 M113.88 0 C136.79 0, 144.43 8.82, 145.88 32 M113.88 0 C134.12 -1.02, 143.85 10.73, 145.88 32 M145.88 32 C145.27 50.87, 145.7 71, 145.88 104.46 M145.88 32 C146.21 59.04, 146.16 86.14, 145.88 104.46 M145.88 104.46 C144.26 124.31, 133.62 137.96, 113.88 136.46 M145.88 104.46 C147.83 127.57, 135.58 138.03, 113.88 136.46 M113.88 136.46 C87.18 135.56, 57.16 137.09, 32 136.46 M113.88 136.46 C94.76 135.96, 76.42 134.89, 32 136.46 M32 136.46 C10.19 138.43, 1.08 127.73, 0 104.46 M32 136.46 C9.14 134.52, -0.56 126, 0 104.46 M0 104.46 C-0.21 76.27, 1.89 47.28, 0 32 M0 104.46 C-1.34 84.84, -1.01 67.17, 0 32 M0 32 C-0.78 9.22, 9.37 -1.57, 32 0 M0 32 C-2.13 8.49, 10.7 -0.18, 32 0" stroke="#1e1e1e" stroke-width="2" fill="none"></path></g><g transform="translate(1352.9122962717126 152.19883869396676) rotate(0 28.53997039794922 12.5)"><text x="28.53997039794922" y="17.52" font-family="Virgil, Segoe UI Emoji" font-size="20px" fill="#1e1e1e" text-anchor="middle" style="white-space: pre;" direction="ltr" dominant-baseline="alphabetic">Cache</text></g><g stroke-linecap="round"><g transform="translate(1099.706308894485 330.200558786961) rotate(0 83.22823931762366 -62.72490055756225)"><path d="M-0.16 0.78 C27.7 -20.06, 138.11 -104.59, 166.05 -125.48 M-1.7 0.14 C26.06 -20.46, 136.73 -102.86, 164.89 -123.96" stroke="#1e1e1e" stroke-width="2" fill="none"></path></g><g transform="translate(1099.706308894485 330.200558786961) rotate(0 83.22823931762366 -62.72490055756225)"><path d="M151.18 -103.05 C155.44 -108.11, 156.99 -110.12, 164.89 -123.96 M151.18 -103.05 C155.41 -110.71, 160.58 -119.02, 164.89 -123.96" stroke="#1e1e1e" stroke-width="2" fill="none"></path></g><g transform="translate(1099.706308894485 330.200558786961) rotate(0 83.22823931762366 -62.72490055756225)"><path d="M140.95 -116.76 C147.31 -118.92, 151.02 -118.04, 164.89 -123.96 M140.95 -116.76 C149.06 -119.29, 158.05 -122.48, 164.89 -123.96" stroke="#1e1e1e" stroke-width="2" fill="none"></path></g></g><mask></mask><g stroke-linecap="round"><g transform="translate(1267.2807936559686 283.45430214037447) rotate(0 -52.32118926258579 41.465456768830336)"><path d="M0.78 -0.4 C-16.59 13.62, -87.25 70.01, -104.67 83.96 M-0.28 -1.66 C-17.76 12.06, -88.34 68.57, -105.64 82.38" stroke="#1e1e1e" stroke-width="2" fill="none"></path></g><g transform="translate(1267.2807936559686 283.45430214037447) rotate(0 -52.32118926258579 41.465456768830336)"><path d="M-92.63 61.03 C-96.73 66.65, -97.74 73.77, -105.64 82.38 M-92.63 61.03 C-96.76 67.27, -101.6 76.01, -105.64 82.38" stroke="#1e1e1e" stroke-width="2" fill="none"></path></g><g transform="translate(1267.2807936559686 283.45430214037447) rotate(0 -52.32118926258579 41.465456768830336)"><path d="M-81.95 74.39 C-88.83 76.58, -92.63 80.21, -105.64 82.38 M-81.95 74.39 C-89.67 76.07, -98.08 80.34, -105.64 82.38" stroke="#1e1e1e" stroke-width="2" fill="none"></path></g></g><mask></mask><g mask="url(#mask-SWtuZszXg04k2Kp2N_pHl)" stroke-linecap="round"><g transform="translate(208.87064751273817 519.1260431151807) rotate(0 191.75537160257326 -2.9410333067878582)"><path d="M0.89 0.41 C64.84 -0.9, 319.86 -5.67, 383.67 -6.88 M-0.1 -0.41 C63.71 -1.1, 318.93 -4.93, 382.8 -5.87" stroke="#1e1e1e" stroke-width="2" fill="none"></path></g><g transform="translate(208.87064751273817 519.1260431151807) rotate(0 191.75537160257326 -2.9410333067878582)"><path d="M359.44 3.03 C367 0.47, 371.6 -2.06, 382.8 -5.87 M359.44 3.03 C363.62 0.33, 369.65 -1.64, 382.8 -5.87" stroke="#1e1e1e" stroke-width="2" fill="none"></path></g><g transform="translate(208.87064751273817 519.1260431151807) rotate(0 191.75537160257326 -2.9410333067878582)"><path d="M359.18 -14.07 C366.97 -11.55, 371.64 -8.99, 382.8 -5.87 M359.18 -14.07 C363.38 -13.01, 369.46 -11.22, 382.8 -5.87" stroke="#1e1e1e" stroke-width="2" fill="none"></path></g></g><mask id="mask-SWtuZszXg04k2Kp2N_pHl"><rect x="0" y="0" fill="#fff" width="692.3813907178846" height="625.0081097287564"></rect><rect x="306.48613416658094" y="491.18500980839235" fill="#000" width="188.27976989746094" height="50" opacity="1"></rect></mask><g transform="translate(306.48613416658094 491.18500980839235) rotate(0 94.16849059673027 24.707331329957015)"><text x="94.13988494873047" y="17.52" font-family="Virgil, Segoe UI Emoji" font-size="20px" fill="#1e1e1e" text-anchor="middle" style="white-space: pre;" direction="ltr" dominant-baseline="alphabetic">POST</text><text x="94.13988494873047" y="42.519999999999996" font-family="Virgil, Segoe UI Emoji" font-size="20px" fill="#1e1e1e" text-anchor="middle" style="white-space: pre;" direction="ltr" dominant-baseline="alphabetic">Create a short url</text></g><g stroke-linecap="round" transform="translate(1341.8413754458993 486.44642190532454) rotate(0 91.7602391717835 84.11355257413493)"><path d="M115 21.25 C122.95 29.99, 136.56 41.74, 160.52 63.75 M115 21.25 C129.41 34.55, 142.14 47.84, 160.52 63.75 M160.52 63.75 C183.72 84.62, 181.8 86.13, 160.52 106.25 M160.52 63.75 C181.77 85.35, 182.39 82.72, 160.52 106.25 M160.52 106.25 C147.14 117.34, 134.44 129.24, 115 146.98 M160.52 106.25 C149.72 117.76, 137.12 126.54, 115 146.98 M115 146.98 C93.77 166.68, 91.18 168.91, 69 146.98 M115 146.98 C94.28 166.47, 93.64 168.98, 69 146.98 M69 146.98 C50.37 131.32, 36.53 117.89, 23 106.25 M69 146.98 C55.33 136.16, 42.93 125.48, 23 106.25 M23 106.25 C1.14 84.71, 1.7 84.27, 23 63.75 M23 106.25 C-1.7 86.16, 0.82 87.24, 23 63.75 M23 63.75 C33.62 54.95, 41.65 46.15, 69 21.25 M23 63.75 C34.98 53.97, 45.32 43.22, 69 21.25 M69 21.25 C92.38 1.92, 90.2 -0.1, 115 21.25 M69 21.25 C93.93 -0.57, 92.71 0.13, 115 21.25" stroke="#1e1e1e" stroke-width="2" fill="none"></path></g><g stroke-linecap="round" transform="translate(1437.7195480041069 464.68326219201504) rotate(0 91.7602391717835 84.11355257413493)"><path d="M115 21.25 C131.96 37.39, 149.35 54.47, 160.52 63.75 M115 21.25 C131.05 37.41, 147.3 50.74, 160.52 63.75 M160.52 63.75 C185.36 86.87, 185.26 83.68, 160.52 106.25 M160.52 63.75 C184.95 83.5, 183.75 83.33, 160.52 106.25 M160.52 106.25 C145.22 120.8, 132.23 131.8, 115 146.98 M160.52 106.25 C149.36 115.21, 139.72 124.6, 115 146.98 M115 146.98 C91.66 169.08, 93.57 169.49, 69 146.98 M115 146.98 C93.31 168.71, 94.11 169.85, 69 146.98 M69 146.98 C51.05 134.4, 36.6 117.81, 23 106.25 M69 146.98 C51.17 131.13, 33.51 114.27, 23 106.25 M23 106.25 C1.23 85.11, -1.35 84.19, 23 63.75 M23 106.25 C1.81 82.87, -0.11 85.75, 23 63.75 M23 63.75 C38.04 49.54, 51.77 36.5, 69 21.25 M23 63.75 C32.23 54, 43.42 45.06, 69 21.25 M69 21.25 C93.44 0.09, 92.21 0.36, 115 21.25 M69 21.25 C90.93 1.42, 91.01 -0.93, 115 21.25" stroke="#1e1e1e" stroke-width="2" fill="none"></path></g><g transform="translate(1514.5296755245688 536.2400384790828) rotate(0 15.069992065429688 12.5)"><text x="15.069992065429688" y="17.52" font-family="Virgil, Segoe UI Emoji" font-size="20px" fill="#1e1e1e" text-anchor="middle" style="white-space: pre;" direction="ltr" dominant-baseline="alphabetic">DB</text></g><g stroke-linecap="round" transform="translate(1444.1903080359616 365.2768231795046) rotate(0 91.7602391717835 84.11355257413493)"><path d="M115 21.25 C124.7 31.48, 139.13 44.64, 160.52 63.75 M115 21.25 C124.81 29.37, 135.71 40.38, 160.52 63.75 M160.52 63.75 C185.26 83.68, 184.76 83.7, 160.52 106.25 M160.52 63.75 C183.75 83.33, 183.58 84.31, 160.52 106.25 M160.52 106.25 C143.4 121.85, 126.35 133.76, 115 146.98 M160.52 106.25 C146.61 118.45, 132.03 131.71, 115 146.98 M115 146.98 C93.57 169.49, 93.14 168.65, 69 146.98 M115 146.98 C94.11 169.85, 93.32 166.34, 69 146.98 M69 146.98 C51.37 130.77, 34.88 113.67, 23 106.25 M69 146.98 C58.98 137.62, 48.95 128.92, 23 106.25 M23 106.25 C-1.35 84.19, 1.57 83.15, 23 63.75 M23 106.25 C-0.11 85.75, -0.02 82.71, 23 63.75 M23 63.75 C41.88 45.77, 57.55 28.57, 69 21.25 M23 63.75 C37.37 50.98, 50.88 39.41, 69 21.25 M69 21.25 C92.21 0.36, 91.07 1.24, 115 21.25 M69 21.25 C91.01 -0.93, 90.22 1.03, 115 21.25" stroke="#1e1e1e" stroke-width="2" fill="none"></path></g><g stroke-linecap="round"><g transform="translate(1113.6171908391557 585.2651410133997) rotate(0 117.05312561015978 -0.5882066613576171)"><path d="M1.18 0.24 C40.5 0.07, 196.13 0.34, 234.93 0.02 M0.34 -0.67 C39.65 -0.63, 195.61 -1.48, 234.41 -1.48" stroke="#1e1e1e" stroke-width="2" fill="none"></path></g><g transform="translate(1113.6171908391557 585.2651410133997) rotate(0 117.05312561015978 -0.5882066613576171)"><path d="M210.95 7.14 C216.43 6.39, 223.17 2.89, 234.41 -1.48 M210.95 7.14 C216.53 4.69, 222.61 3.28, 234.41 -1.48" stroke="#1e1e1e" stroke-width="2" fill="none"></path></g><g transform="translate(1113.6171908391557 585.2651410133997) rotate(0 117.05312561015978 -0.5882066613576171)"><path d="M210.89 -9.96 C216.54 -6.96, 223.29 -6.69, 234.41 -1.48 M210.89 -9.96 C216.47 -8.04, 222.57 -5.08, 234.41 -1.48" stroke="#1e1e1e" stroke-width="2" fill="none"></path></g></g><mask></mask><g stroke-linecap="round"><g transform="translate(1405.3676948725188 491.1520751961864) rotate(0 -120.58236557830537 -0.5882066613576171)"><path d="M0.55 0.29 C-39.57 -0.29, -200.3 -2.25, -240.61 -2.33 M-0.62 -0.6 C-40.87 -0.57, -201.01 -1.17, -241.26 -1.4" stroke="#1e1e1e" stroke-width="2" fill="none"></path></g><g transform="translate(1405.3676948725188 491.1520751961864) rotate(0 -120.58236557830537 -0.5882066613576171)"><path d="M-217.73 -9.84 C-224.52 -6.16, -234.28 -4.69, -241.26 -1.4 M-217.73 -9.84 C-226.68 -7.38, -236.62 -2.85, -241.26 -1.4" stroke="#1e1e1e" stroke-width="2" fill="none"></path></g><g transform="translate(1405.3676948725188 491.1520751961864) rotate(0 -120.58236557830537 -0.5882066613576171)"><path d="M-217.81 7.26 C-224.74 5.59, -234.48 1.72, -241.26 -1.4 M-217.81 7.26 C-226.62 3.14, -236.53 1.09, -241.26 -1.4" stroke="#1e1e1e" stroke-width="2" fill="none"></path></g></g><mask></mask><g stroke-linecap="round"><g transform="translate(1405.3676948725188 289.98539701189134) rotate(0 44.11549960181901 50.58577287675257)"><path d="M0.93 -0.64 C15.7 16.47, 73.94 85.27, 88.45 102.12 M-0.04 1.64 C14.6 18.48, 73.09 83.88, 87.62 100.5" stroke="#1e1e1e" stroke-width="2" fill="none"></path></g><g transform="translate(1405.3676948725188 289.98539701189134) rotate(0 44.11549960181901 50.58577287675257)"><path d="M65.64 88.57 C70.84 92.2, 79.82 94.87, 87.62 100.5 M65.64 88.57 C71.74 91.62, 75.84 95.38, 87.62 100.5" stroke="#1e1e1e" stroke-width="2" fill="none"></path></g><g transform="translate(1405.3676948725188 289.98539701189134) rotate(0 44.11549960181901 50.58577287675257)"><path d="M78.45 77.24 C79.91 84.23, 85.2 90.16, 87.62 100.5 M78.45 77.24 C81.39 82.93, 82.43 89.41, 87.62 100.5" stroke="#1e1e1e" stroke-width="2" fill="none"></path></g></g><mask></mask><g stroke-linecap="round"><g transform="translate(1539.4788136620484 340.5711698886437) rotate(0 -45.88011958589175 -49.40935955403734)"><path d="M-0.22 -0.28 C-15.75 -16.83, -77.53 -83.17, -92.63 -99.49 M-1.79 -1.47 C-16.99 -17.86, -75.49 -81.84, -90.37 -98.31" stroke="#1e1e1e" stroke-width="2" fill="none"></path></g><g transform="translate(1539.4788136620484 340.5711698886437) rotate(0 -45.88011958589175 -49.40935955403734)"><path d="M-68.23 -86.69 C-76.36 -92.2, -84.7 -93.17, -90.37 -98.31 M-68.23 -86.69 C-75.33 -91.24, -83.19 -93.69, -90.37 -98.31" stroke="#1e1e1e" stroke-width="2" fill="none"></path></g><g transform="translate(1539.4788136620484 340.5711698886437) rotate(0 -45.88011958589175 -49.40935955403734)"><path d="M-80.88 -75.18 C-84.6 -84.66, -88.55 -89.63, -90.37 -98.31 M-80.88 -75.18 C-83.57 -83.86, -87.02 -90.33, -90.37 -98.31" stroke="#1e1e1e" stroke-width="2" fill="none"></path></g></g><mask></mask><g stroke-linecap="round" transform="translate(603.0538087807702 395.86259605625696) rotate(0 78.23148596055904 74.11403933105612)"><path d="M113.5 8.46 C123.37 12.23, 132.93 21.36, 139.81 30.01 C146.69 38.66, 152.34 49.97, 154.78 60.38 C157.21 70.8, 157.22 82.15, 154.44 92.52 C151.66 102.89, 145.36 114.49, 138.1 122.61 C130.84 130.73, 121.09 137.1, 110.89 141.21 C100.68 145.32, 88.25 147.35, 76.85 147.27 C65.45 147.19, 52.78 145.34, 42.48 140.73 C32.18 136.12, 21.81 128.14, 15.06 119.62 C8.31 111.1, 3.92 100.21, 1.96 89.6 C0 79, 0.62 66.52, 3.29 55.98 C5.95 45.44, 10.94 34.65, 17.96 26.34 C24.98 18.03, 34.92 10.63, 45.39 6.13 C55.87 1.62, 68.19 -1.73, 80.8 -0.68 C93.41 0.37, 113.32 9.5, 121.05 12.44 C128.77 15.37, 127.7 15.99, 127.15 16.94 M56.95 3.28 C66.9 -0.78, 80.89 -1.23, 91.76 0.48 C102.63 2.19, 112.9 7.34, 122.16 13.54 C131.41 19.74, 141.64 28.56, 147.3 37.69 C152.97 46.83, 155.34 57.72, 156.13 68.36 C156.91 79, 156.28 91.26, 151.99 101.54 C147.7 111.83, 139.14 122.94, 130.37 130.08 C121.6 137.22, 110.22 141.65, 99.37 144.39 C88.52 147.14, 76.16 148.05, 65.26 146.54 C54.37 145.03, 43.02 141.36, 34 135.34 C24.99 129.33, 16.77 119.61, 11.18 110.43 C5.59 101.26, 1.17 90.82, 0.48 80.28 C-0.2 69.74, 3 57.14, 7.07 47.19 C11.15 37.24, 16.72 28.17, 24.94 20.58 C33.16 12.99, 50.99 4.52, 56.39 1.67 C61.78 -1.19, 56.99 2.21, 57.3 3.46" stroke="#1e1e1e" stroke-width="2" fill="none"></path></g><g transform="translate(638.7673217150482 445.07009559519634) rotate(0 42.69995880126953 25)"><text x="42.69995880126953" y="17.52" font-family="Virgil, Segoe UI Emoji" font-size="20px" fill="#1e1e1e" text-anchor="middle" style="white-space: pre;" direction="ltr" dominant-baseline="alphabetic">Load </text><text x="42.69995880126953" y="42.519999999999996" font-family="Virgil, Segoe UI Emoji" font-size="20px" fill="#1e1e1e" text-anchor="middle" style="white-space: pre;" direction="ltr" dominant-baseline="alphabetic">Balancer</text></g><g stroke-linecap="round"><g transform="translate(774.8101538971857 452.3304355465855) rotate(0 104.11257906029289 -27.64571308380664)"><path d="M0.13 0.03 C34.98 -9.07, 173.61 -46.09, 208.33 -55.15 M-1.26 -1 C33.5 -9.83, 172.6 -44.34, 207.43 -53.53" stroke="#1e1e1e" stroke-width="2" fill="none"></path></g><g transform="translate(774.8101538971857 452.3304355465855) rotate(0 104.11257906029289 -27.64571308380664)"><path d="M186.78 -39.44 C191.79 -42.63, 196.87 -45.84, 207.43 -53.53 M186.78 -39.44 C194.78 -44.31, 203.46 -49.62, 207.43 -53.53" stroke="#1e1e1e" stroke-width="2" fill="none"></path></g><g transform="translate(774.8101538971857 452.3304355465855) rotate(0 104.11257906029289 -27.64571308380664)"><path d="M182.56 -56.02 C188.49 -55.28, 194.57 -54.56, 207.43 -53.53 M182.56 -56.02 C192.22 -54.55, 202.5 -53.53, 207.43 -53.53" stroke="#1e1e1e" stroke-width="2" fill="none"></path></g></g><mask></mask><g stroke-linecap="round"><g transform="translate(764.8111274110277 518.7982750369131) rotate(0 51.76218619946758 41.76267295638877)"><path d="M-0.21 0.46 C16.85 14.49, 86.22 70.68, 103.4 84.62 M-1.78 -0.35 C15.02 13.34, 85.13 69.35, 102.39 83.07" stroke="#1e1e1e" stroke-width="2" fill="none"></path></g><g transform="translate(764.8111274110277 518.7982750369131) rotate(0 51.76218619946758 41.76267295638877)"><path d="M78.69 75.11 C88.66 78.03, 98.89 80.26, 102.39 83.07 M78.69 75.11 C87.75 78.86, 94.39 80.73, 102.39 83.07" stroke="#1e1e1e" stroke-width="2" fill="none"></path></g><g transform="translate(764.8111274110277 518.7982750369131) rotate(0 51.76218619946758 41.76267295638877)"><path d="M89.35 61.74 C95.24 69.82, 101.35 77.22, 102.39 83.07 M89.35 61.74 C94.62 70.05, 97.59 76.54, 102.39 83.07" stroke="#1e1e1e" stroke-width="2" fill="none"></path></g></g><mask></mask><g stroke-linecap="round"><g transform="translate(775.9865672199007 486.44642190532545) rotate(0 81.17251926734696 4.70565329086071)"><path d="M0.36 0.82 C27.44 2.29, 135.9 7.63, 162.84 9.08 M-0.91 0.2 C26.03 1.83, 135.16 8.66, 162.15 10.45" stroke="#1e1e1e" stroke-width="2" fill="none"></path></g><g transform="translate(775.9865672199007 486.44642190532545) rotate(0 81.17251926734696 4.70565329086071)"><path d="M138.16 17.48 C147.37 15.93, 153.31 12.23, 162.15 10.45 M138.16 17.48 C146.19 14.72, 152.77 12.94, 162.15 10.45" stroke="#1e1e1e" stroke-width="2" fill="none"></path></g><g transform="translate(775.9865672199007 486.44642190532545) rotate(0 81.17251926734696 4.70565329086071)"><path d="M139.26 0.41 C148.14 4.46, 153.72 6.34, 162.15 10.45 M139.26 0.41 C147.08 2.98, 153.33 6.54, 162.15 10.45" stroke="#1e1e1e" stroke-width="2" fill="none"></path></g></g><mask></mask></svg>