<svg version="1.1" xmlns="http://www.w3.org/2000/svg" viewBox="0 0 1255.2088035660963 595.0746437159592" width="1255.2088035660963" height="595.0746437159592" filter="invert(93%) hue-rotate(180deg)">
  <!-- svg-source:excalidraw -->
  
  <defs>
    <style class="style-fonts">
      @font-face {
        font-family: "Virgil";
        src: url("https://excalidraw.com/Virgil.woff2");
      }
      @font-face {
        font-family: "Cascadia";
        src: url("https://excalidraw.com/Cascadia.woff2");
      }
      @font-face {
        font-family: "Assistant";
        src: url("https://excalidraw.com/Assistant-Regular.woff2");
      }
    </style>
    
  </defs>
  <rect x="0" y="0" width="1255.2088035660963" height="595.0746437159592" fill="#ffffff"></rect><g stroke-linecap="round" transform="translate(10 309.7939262006082) rotate(0 99.9951324307898 94.11306581721396)"><path d="M137.14 6.94 C149.01 9.7, 159.66 18.35, 168.86 26.78 C178.05 35.2, 187.19 46.67, 192.31 57.51 C197.43 68.36, 199.31 80.03, 199.58 91.86 C199.85 103.69, 198.49 117.03, 193.93 128.48 C189.36 139.92, 181.36 151.9, 172.22 160.55 C163.07 169.21, 150.67 175.84, 139.05 180.41 C127.42 184.97, 115.06 187.86, 102.47 187.94 C89.89 188.02, 75.67 185.43, 63.52 180.89 C51.37 176.35, 38.88 168.83, 29.57 160.73 C20.27 152.62, 12.6 143.23, 7.69 132.28 C2.79 121.33, 0.41 107.05, 0.15 95.01 C-0.11 82.98, 1.53 71.04, 6.14 60.08 C10.76 49.11, 18.73 37.95, 27.85 29.23 C36.97 20.5, 49.01 12.7, 60.85 7.74 C72.69 2.77, 85.35 -0.62, 98.87 -0.57 C112.38 -0.52, 134.07 5.86, 141.95 8.04 C149.84 10.23, 146.82 10.98, 146.18 12.53 M144.76 11.35 C156.19 15.53, 169.24 24.71, 177.64 33.99 C186.03 43.27, 191.29 55.58, 195.14 67.04 C198.99 78.5, 201.96 91.23, 200.74 102.76 C199.51 114.28, 194.03 125.57, 187.81 136.18 C181.59 146.78, 173.11 158.64, 163.42 166.38 C153.73 174.13, 141.62 179.29, 129.67 182.65 C117.73 186.01, 104.4 187.37, 91.75 186.53 C79.11 185.68, 65.15 183.02, 53.79 177.58 C42.42 172.14, 31.64 163.3, 23.54 153.9 C15.44 144.5, 8.91 132.4, 5.2 121.2 C1.49 110, 0.18 98.61, 1.29 86.69 C2.39 74.78, 5.89 60.45, 11.83 49.7 C17.77 38.95, 27.12 29.74, 36.91 22.18 C46.69 14.61, 58.38 8.13, 70.53 4.29 C82.69 0.45, 97.17 -1.77, 109.82 -0.89 C122.47 0, 140.62 7.53, 146.43 9.6 C152.25 11.67, 145.43 9.82, 144.72 11.54" stroke="#1e1e1e" stroke-width="2" fill="none"></path></g><g transform="translate(87.44792275362443 391.3590049802144) rotate(0 22.33997344970703 12.5)"><text x="22.33997344970703" y="17.52" font-family="Virgil, Segoe UI Emoji" font-size="20px" fill="#1e1e1e" text-anchor="middle" style="white-space: pre;" direction="ltr" dominant-baseline="alphabetic">User</text></g><g stroke-linecap="round" transform="translate(532.3275152855372 259.2081533238561) rotate(0 72.93762600834071 162.93324519605153)"><path d="M32 0 C52.65 -0.8, 72.8 1.77, 113.88 0 M32 0 C62.61 -0.67, 93.65 -0.8, 113.88 0 M113.88 0 C135.86 1.08, 145.88 11.78, 145.88 32 M113.88 0 C136.97 1.18, 144.73 10.99, 145.88 32 M145.88 32 C145.45 119.83, 144.83 210.63, 145.88 293.87 M145.88 32 C148.1 87.2, 148.32 143.45, 145.88 293.87 M145.88 293.87 C145.97 315.36, 135.06 324.01, 113.88 325.87 M145.88 293.87 C144.94 313.69, 135.29 323.93, 113.88 325.87 M113.88 325.87 C85.73 325.85, 60.93 326.24, 32 325.87 M113.88 325.87 C91.57 325.69, 68.42 325.32, 32 325.87 M32 325.87 C12.2 324, -0.23 316.9, 0 293.87 M32 325.87 C10.34 325.3, 0.06 315.96, 0 293.87 M0 293.87 C-0.76 202.65, -0.27 110.7, 0 32 M0 293.87 C-1.02 204.35, -1.06 114.2, 0 32 M0 32 C-1.36 10.91, 11.67 0.67, 32 0 M0 32 C1.67 9.02, 10.5 -1.06, 32 0" stroke="#1e1e1e" stroke-width="2" fill="none"></path></g><g transform="translate(575.8548082259986 413.31829859954337) rotate(0 30.84996795654297 12.5)"><text x="0" y="17.52" font-family="Virgil, Segoe UI Emoji" font-size="20px" fill="#1e1e1e" text-anchor="start" style="white-space: pre;" direction="ltr" dominant-baseline="alphabetic">Server</text></g><g mask="url(#mask-RHaZfIio05FP03bDQ-vUK)" stroke-linecap="round"><g transform="translate(193.27383721349418 349.9834502646852) rotate(0 164.69786518012432 -0.5882066613576171)"><path d="M0.67 1.05 C55.39 0.91, 273.27 -1.32, 328.21 -1.65 M-0.44 0.55 C54.64 0.65, 275.22 -0.35, 330.3 -0.36" stroke="#1e1e1e" stroke-width="2" fill="none"></path></g><g transform="translate(193.27383721349418 349.9834502646852) rotate(0 164.69786518012432 -0.5882066613576171)"><path d="M306.83 8.25 C315.39 3.67, 319.61 4.7, 330.3 -0.36 M306.83 8.25 C314.67 5.73, 322.31 2.92, 330.3 -0.36" stroke="#1e1e1e" stroke-width="2" fill="none"></path></g><g transform="translate(193.27383721349418 349.9834502646852) rotate(0 164.69786518012432 -0.5882066613576171)"><path d="M306.79 -8.85 C315.24 -8.51, 319.47 -2.56, 330.3 -0.36 M306.79 -8.85 C314.54 -5.93, 322.19 -3.31, 330.3 -0.36" stroke="#1e1e1e" stroke-width="2" fill="none"></path></g></g><mask id="mask-RHaZfIio05FP03bDQ-vUK"><rect x="0" y="0" fill="#fff" width="622.6695675737428" height="451.1598635874004"></rect><rect x="269.56181317242715" y="336.8952436033276" fill="#000" width="176.8197784423828" height="25" opacity="1"></rect></mask><g transform="translate(269.56181317242715 336.8952436033276) rotate(0 88.64237335802045 12.785808673501037)"><text x="88.4098892211914" y="17.52" font-family="Virgil, Segoe UI Emoji" font-size="20px" fill="#1e1e1e" text-anchor="middle" style="white-space: pre;" direction="ltr" dominant-baseline="alphabetic">Request short url</text></g><g mask="url(#mask-54A7D49oItU954OJO0KSS)" stroke-linecap="round"><g transform="translate(694.4259126901582 335.86649039210306) rotate(0 206.46053813651298 0.5882066613575034)"><path d="M-0.52 0.59 C68.14 0.86, 343.63 0.86, 412.53 0.98 M1.41 -0.14 C69.82 0.37, 342.93 1.94, 411.38 2.41" stroke="#1e1e1e" stroke-width="2" fill="none"></path></g><g transform="translate(694.4259126901582 335.86649039210306) rotate(0 206.46053813651298 0.5882066613575034)"><path d="M387.83 10.81 C397.09 7.33, 403.99 4.95, 411.38 2.41 M387.83 10.81 C394.21 7.82, 402.97 4.95, 411.38 2.41" stroke="#1e1e1e" stroke-width="2" fill="none"></path></g><g transform="translate(694.4259126901582 335.86649039210306) rotate(0 206.46053813651298 0.5882066613575034)"><path d="M387.94 -6.29 C397.07 -3.8, 403.93 -0.21, 411.38 2.41 M387.94 -6.29 C394.39 -3.96, 403.11 -1.51, 411.38 2.41" stroke="#1e1e1e" stroke-width="2" fill="none"></path></g></g><mask id="mask-54A7D49oItU954OJO0KSS"><rect x="0" y="0" fill="#fff" width="1207.3469889631842" height="437.04290371481807"></rect><rect x="800.2765722866321" y="323.9546970534607" fill="#000" width="201.21975708007812" height="25" opacity="1"></rect></mask><g transform="translate(800.276572286632 323.9546970534607) rotate(0 100.15440417826164 13.046461690654837)"><text x="100.60987854003906" y="17.52" font-family="Virgil, Segoe UI Emoji" font-size="20px" fill="#1e1e1e" text-anchor="middle" style="white-space: pre;" direction="ltr" dominant-baseline="alphabetic">Save/check if exists</text></g><g stroke-linecap="round"><g transform="translate(1109.6998156086142 484.09456905421507) rotate(0 -211.7543980887313 -1.7646199840728514)"><path d="M0.53 0.36 C-69.78 -0.28, -352 -2.71, -422.56 -3.24 M-0.65 -0.5 C-70.97 -1.57, -352.58 -4.5, -423.01 -5.22" stroke="#1e1e1e" stroke-width="2" fill="none"></path></g><g transform="translate(1109.6998156086142 484.09456905421507) rotate(0 -211.7543980887313 -1.7646199840728514)"><path d="M-399.43 -13.52 C-404.51 -9.82, -410.36 -8.21, -423.01 -5.22 M-399.43 -13.52 C-407.63 -11.04, -415.94 -7.5, -423.01 -5.22" stroke="#1e1e1e" stroke-width="2" fill="none"></path></g><g transform="translate(1109.6998156086142 484.09456905421507) rotate(0 -211.7543980887313 -1.7646199840728514)"><path d="M-399.6 3.58 C-404.73 3.13, -410.53 0.59, -423.01 -5.22 M-399.6 3.58 C-407.7 -0.05, -415.95 -2.63, -423.01 -5.22" stroke="#1e1e1e" stroke-width="2" fill="none"></path></g></g><mask></mask><g mask="url(#mask-wI73EuHrfdu5DRgbysEqe)" stroke-linecap="round"><g transform="translate(516.7875009601669 489.9766356677908) rotate(0 -156.46297192111808 0.5882066613576171)"><path d="M-1.18 -1.14 C-53.22 -0.9, -260.25 1.63, -312.32 1.87 M0.4 0.88 C-51.74 0.74, -260.44 0.07, -312.94 0.1" stroke="#1e1e1e" stroke-width="2" fill="none"></path></g><g transform="translate(516.7875009601669 489.9766356677908) rotate(0 -156.46297192111808 0.5882066613576171)"><path d="M-289.44 -8.41 C-298.24 -5.11, -302.14 -4.65, -312.94 0.1 M-289.44 -8.41 C-295.29 -7.21, -299.54 -3.79, -312.94 0.1" stroke="#1e1e1e" stroke-width="2" fill="none"></path></g><g transform="translate(516.7875009601669 489.9766356677908) rotate(0 -156.46297192111808 0.5882066613576171)"><path d="M-289.46 8.69 C-298.32 6.94, -302.21 2.35, -312.94 0.1 M-289.46 8.69 C-295.45 6.06, -299.69 5.64, -312.94 0.1" stroke="#1e1e1e" stroke-width="2" fill="none"></path></g></g><mask id="mask-wI73EuHrfdu5DRgbysEqe"><rect x="0" y="0" fill="#fff" width="929.713444802403" height="591.153048990506"></rect><rect x="305.0445912949082" y="478.0648423291484" fill="#000" width="110.55987548828125" height="25" opacity="1"></rect></mask><g transform="translate(305.0445912949082 478.0648423291484) rotate(0 55.472523415247 12.27509463727472)"><text x="55.279937744140625" y="17.52" font-family="Virgil, Segoe UI Emoji" font-size="20px" fill="#1e1e1e" text-anchor="middle" style="white-space: pre;" direction="ltr" dominant-baseline="alphabetic">Shorted url</text></g><g stroke-linecap="round" transform="translate(737.9532056306197 10) rotate(0 72.93762600834089 68.23197271748006)"><path d="M32 0 C60.04 0.15, 85.56 -0.15, 113.88 0 M32 0 C57.13 0.65, 84.56 0.84, 113.88 0 M113.88 0 C134.51 1.26, 144.63 10.05, 145.88 32 M113.88 0 C133.87 -1.08, 147.5 8.42, 145.88 32 M145.88 32 C144.69 61.08, 144.79 90.34, 145.88 104.46 M145.88 32 C145.98 54.48, 145.35 77.8, 145.88 104.46 M145.88 104.46 C146.42 126.59, 133.89 136.91, 113.88 136.46 M145.88 104.46 C147.7 124.71, 137.13 134.82, 113.88 136.46 M113.88 136.46 C92.76 136.21, 68.02 136.32, 32 136.46 M113.88 136.46 C91.5 136.7, 69.3 135.28, 32 136.46 M32 136.46 C10.87 135.16, -0.87 127.75, 0 104.46 M32 136.46 C11.23 134.51, -1.47 123.95, 0 104.46 M0 104.46 C1.61 86.41, -0.42 68.13, 0 32 M0 104.46 C0.1 81.32, -0.03 57.3, 0 32 M0 32 C-1.67 11.31, 12 1.16, 32 0 M0 32 C0.5 9.66, 10.24 -1.82, 32 0" stroke="#1e1e1e" stroke-width="2" fill="none"></path></g><g transform="translate(782.3508612410113 65.73197271748018) rotate(0 28.53997039794922 12.5)"><text x="28.53997039794922" y="17.52" font-family="Virgil, Segoe UI Emoji" font-size="20px" fill="#1e1e1e" text-anchor="middle" style="white-space: pre;" direction="ltr" dominant-baseline="alphabetic">Cache</text></g><g stroke-linecap="round"><g transform="translate(1110.8762289313295 337.0429037148185) rotate(0 1.1764133227152342 71.76121268562554)"><path d="M-0.38 1.04 C-0.27 24.95, 1.59 118.98, 1.85 142.55 M1.62 0.54 C1.43 24.65, 0.34 119.8, 0.64 143.58" stroke="#1e1e1e" stroke-width="2" fill="none"></path></g></g><mask></mask><g stroke-linecap="round"><g transform="translate(1244.9873477208594 335.8664903921033) rotate(0 -1.1764133227151206 70.58479936291042)"><path d="M0.22 0.3 C0.18 23.64, -0.74 116.92, -1.32 140.43 M-1.12 -0.6 C-1.14 22.86, -1.78 117.68, -1.72 141.58" stroke="#1e1e1e" stroke-width="2" fill="none"></path></g></g><mask></mask><g stroke-linecap="round" transform="translate(1110.8762289313295 307.63257064693926) rotate(0 66.46735273340732 24.5)"><path d="M46.69 1.56 C56.66 0.32, 71.17 0.15, 82.06 1.14 C92.94 2.13, 104.06 4.84, 112.01 7.49 C119.96 10.15, 126.49 13.14, 129.75 17.08 C133.01 21.02, 134.12 26.95, 131.55 31.14 C128.99 35.34, 121.94 39.29, 114.34 42.26 C106.75 45.23, 96.65 47.95, 85.98 48.97 C75.31 49.99, 61.09 49.48, 50.34 48.36 C39.59 47.25, 29.3 45.16, 21.47 42.27 C13.63 39.39, 6.59 34.95, 3.34 31.06 C0.1 27.18, -0.52 22.97, 1.98 18.95 C4.49 14.94, 9.87 9.93, 18.37 6.98 C26.87 4.03, 46.02 2.3, 52.97 1.26 C59.91 0.22, 59.59 0.4, 60.05 0.73 M53.39 -0.39 C63.51 -1.68, 76.84 0.23, 87.21 1.47 C97.58 2.71, 108.03 3.88, 115.6 7.05 C123.17 10.22, 130.23 16.19, 132.63 20.48 C135.03 24.77, 133.81 28.85, 130.01 32.79 C126.22 36.73, 118 41.25, 109.86 44.1 C101.72 46.95, 91.8 49.21, 81.18 49.89 C70.57 50.58, 57.1 49.79, 46.17 48.19 C35.24 46.59, 23.29 43.63, 15.6 40.29 C7.91 36.95, 1.91 32, 0.03 28.15 C-1.86 24.3, 0.46 20.73, 4.3 17.2 C8.14 13.67, 15.03 9.92, 23.08 6.98 C31.14 4.03, 47.87 0.38, 52.62 -0.46 C57.37 -1.3, 51.26 1.21, 51.58 1.93" stroke="#1e1e1e" stroke-width="2" fill="none"></path></g><g stroke-linecap="round" transform="translate(1111.464922349608 459.9785826954753) rotate(0 66.46735273340732 20.587233147515462)"><path d="M92.43 1.26 C102.22 2.49, 112.07 5.77, 118.87 8.65 C125.66 11.52, 131.87 15.26, 133.21 18.51 C134.55 21.76, 131.29 24.9, 126.93 28.14 C122.56 31.38, 115.93 35.89, 107.03 37.95 C98.12 40.02, 84.75 40.28, 73.49 40.52 C62.23 40.76, 49.58 40.54, 39.45 39.39 C29.32 38.24, 19.11 36.54, 12.68 33.64 C6.25 30.74, 2.08 25.5, 0.88 22.01 C-0.32 18.51, 1.22 15.54, 5.5 12.66 C9.77 9.79, 17.67 6.89, 26.55 4.77 C35.42 2.64, 47.2 0.34, 58.75 -0.07 C70.29 -0.47, 89.33 1.79, 95.82 2.33 C102.31 2.88, 98.05 2.93, 97.7 3.17 M69.07 -0.14 C79.6 -0.38, 90.42 -0.35, 99.84 1.65 C109.25 3.64, 120.18 8.67, 125.56 11.82 C130.95 14.97, 132.46 17.49, 132.13 20.54 C131.8 23.58, 129.09 27.3, 123.57 30.09 C118.05 32.88, 108.87 35.67, 99 37.29 C89.14 38.92, 75.71 39.47, 64.35 39.83 C53 40.19, 40.41 41.13, 30.88 39.43 C21.35 37.73, 12.3 33, 7.19 29.64 C2.08 26.27, -0.4 22.46, 0.22 19.25 C0.85 16.04, 5.29 13.03, 10.94 10.37 C16.59 7.71, 24.54 4.79, 34.12 3.3 C43.69 1.81, 62.84 1.69, 68.4 1.42 C73.96 1.15, 67.36 1.68, 67.48 1.68" stroke="#1e1e1e" stroke-width="2" fill="none"></path></g><g transform="translate(1161.4620018080823 394.6871565278618) rotate(0 15.069992065429688 12.5)"><text x="0" y="17.52" font-family="Virgil, Segoe UI Emoji" font-size="20px" fill="#1e1e1e" text-anchor="start" style="white-space: pre;" direction="ltr" dominant-baseline="alphabetic">DB</text></g><g stroke-linecap="round"><g transform="translate(620.3118733591022 237.85259971074038) rotate(0 56.467839490328345 -71.17300602426792)"><path d="M0.41 -0.04 C19.04 -23.96, 94.08 -119.79, 112.95 -143.48 M-0.83 -1.1 C17.53 -24.93, 93 -119.26, 112.01 -142.53" stroke="#1e1e1e" stroke-width="2" fill="none"></path></g><g transform="translate(620.3118733591022 237.85259971074038) rotate(0 56.467839490328345 -71.17300602426792)"><path d="M103.91 -118.88 C107.07 -128.33, 108.48 -136.7, 112.01 -142.53 M103.91 -118.88 C106.11 -126.59, 108.42 -134.53, 112.01 -142.53" stroke="#1e1e1e" stroke-width="2" fill="none"></path></g><g transform="translate(620.3118733591022 237.85259971074038) rotate(0 56.467839490328345 -71.17300602426792)"><path d="M90.6 -129.61 C99.08 -134.83, 105.8 -138.91, 112.01 -142.53 M90.6 -129.61 C97.03 -133.96, 103.53 -138.51, 112.01 -142.53" stroke="#1e1e1e" stroke-width="2" fill="none"></path></g></g><mask></mask><g stroke-linecap="round"><g transform="translate(770.8927786666446 154.32725379796307) rotate(0 -42.35087961774633 54.11501284489805)"><path d="M0.43 -0.4 C-13.43 17.61, -69.42 90.78, -83.71 109.07 M-0.8 -1.66 C-14.69 15.94, -69.88 89.18, -84.14 107.4" stroke="#1e1e1e" stroke-width="2" fill="none"></path></g><g transform="translate(770.8927786666446 154.32725379796307) rotate(0 -42.35087961774633 54.11501284489805)"><path d="M-76.63 83.55 C-79.05 91.36, -78.9 94.83, -84.14 107.4 M-76.63 83.55 C-79.57 92.36, -82.06 103.03, -84.14 107.4" stroke="#1e1e1e" stroke-width="2" fill="none"></path></g><g transform="translate(770.8927786666446 154.32725379796307) rotate(0 -42.35087961774633 54.11501284489805)"><path d="M-63.06 93.95 C-69.05 99.14, -72.39 99.93, -84.14 107.4 M-63.06 93.95 C-71.38 98.69, -79.22 105.25, -84.14 107.4" stroke="#1e1e1e" stroke-width="2" fill="none"></path></g></g><mask></mask><g stroke-linecap="round"><g transform="translate(878.4396734341107 146.5953773765657) rotate(0 126.46443219188109 81.17251926734684)"><path d="M1.09 0.85 C43.32 27.95, 210.7 134.75, 252.49 161.52 M0.2 0.24 C42.32 27.58, 208.99 135.62, 251.31 162.63" stroke="#1e1e1e" stroke-width="2" fill="none"></path></g><g transform="translate(878.4396734341107 146.5953773765657) rotate(0 126.46443219188109 81.17251926734684)"><path d="M226.93 157.1 C233.72 157.38, 236.38 157.47, 251.31 162.63 M226.93 157.1 C232.09 159.23, 237.88 160.51, 251.31 162.63" stroke="#1e1e1e" stroke-width="2" fill="none"></path></g><g transform="translate(878.4396734341107 146.5953773765657) rotate(0 126.46443219188109 81.17251926734684)"><path d="M236.19 142.72 C240.78 146.29, 241.38 149.58, 251.31 162.63 M236.19 142.72 C239.17 148.14, 242.86 152.67, 251.31 162.63" stroke="#1e1e1e" stroke-width="2" fill="none"></path></g></g><mask></mask><g stroke-linecap="round"><g transform="translate(1216.0702970533653 304.2347626203989) rotate(0 -161.7568318733364 -108.8182323511536)"><path d="M1.07 -0.73 C-52.9 -36.8, -270.14 -181.18, -324.37 -217.44 M0.17 1.5 C-53.37 -34.87, -268.44 -182.98, -322.11 -219.47" stroke="#1e1e1e" stroke-width="2" fill="none"></path></g><g transform="translate(1216.0702970533653 304.2347626203989) rotate(0 -161.7568318733364 -108.8182323511536)"><path d="M-297.89 -213.25 C-305.2 -216.03, -309.8 -217.53, -322.11 -219.47 M-297.89 -213.25 C-304.69 -215.29, -310.01 -217.04, -322.11 -219.47" stroke="#1e1e1e" stroke-width="2" fill="none"></path></g><g transform="translate(1216.0702970533653 304.2347626203989) rotate(0 -161.7568318733364 -108.8182323511536)"><path d="M-307.55 -199.14 C-312.29 -205.59, -314.44 -210.66, -322.11 -219.47 M-307.55 -199.14 C-312.16 -204.58, -315.14 -209.73, -322.11 -219.47" stroke="#1e1e1e" stroke-width="2" fill="none"></path></g></g><mask></mask><g transform="translate(328.8648064296858 305.6075117992973) rotate(0 22.66997528076172 12.5)"><text x="0" y="17.52" font-family="Virgil, Segoe UI Emoji" font-size="20px" fill="#1e1e1e" text-anchor="start" style="white-space: pre;" direction="ltr" dominant-baseline="alphabetic">GET</text></g><g mask="url(#mask-NmjoIIEG6Xs2O2_LkBbKo)" stroke-linecap="round"><g transform="translate(224.16402070803542 425.60167071624505) rotate(0 142.34601204853595 -1.7646199840727377)"><path d="M-0.61 0.52 C46.79 -0.18, 235.97 -3, 283.5 -3.75 M1.28 -0.26 C49.1 -0.81, 238.51 -1.89, 285.59 -2.33" stroke="#1e1e1e" stroke-width="2" fill="none"></path></g><g transform="translate(224.16402070803542 425.60167071624505) rotate(0 142.34601204853595 -1.7646199840727377)"><path d="M262.16 6.39 C268.26 2.57, 272.29 2.42, 285.59 -2.33 M262.16 6.39 C269.14 4.82, 274.12 1.26, 285.59 -2.33" stroke="#1e1e1e" stroke-width="2" fill="none"></path></g><g transform="translate(224.16402070803542 425.60167071624505) rotate(0 142.34601204853595 -1.7646199840727377)"><path d="M262.04 -10.71 C268.22 -10.69, 272.29 -6.99, 285.59 -2.33 M262.04 -10.71 C269.21 -7.79, 274.21 -6.86, 285.59 -2.33" stroke="#1e1e1e" stroke-width="2" fill="none"></path></g></g><mask id="mask-NmjoIIEG6Xs2O2_LkBbKo"><rect x="0" y="0" fill="#fff" width="608.8560448051073" height="529.1309106843905"></rect><rect x="272.3701478078409" y="411.33705073217243" fill="#000" width="188.27976989746094" height="25" opacity="1"></rect></mask><g transform="translate(272.3701478078409 411.33705073217243) rotate(0 94.28653174101373 12.647081172093635)"><text x="94.13988494873047" y="17.52" font-family="Virgil, Segoe UI Emoji" font-size="20px" fill="#1e1e1e" text-anchor="middle" style="white-space: pre;" direction="ltr" dominant-baseline="alphabetic">Create a short url</text></g><g transform="translate(330.04121975240093 392.66209768022054) rotate(0 27.989974975585938 12.5)"><text x="0" y="17.52" font-family="Virgil, Segoe UI Emoji" font-size="20px" fill="#1e1e1e" text-anchor="start" style="white-space: pre;" direction="ltr" dominant-baseline="alphabetic">POST</text></g></svg>